<svg version="1" xmlns="http://www.w3.org/2000/svg" width="205.333" height="101.333" viewBox="0 0 154.000000 76.000000"><path d="M72 14.7c-4.9 7.6-9.5 14.7-10.4 15.9-1.1 1.6-3.3 2.3-9.8 3.2-9.9 1.4-14.8 1.5-14.8.3 0-1 12.1-21 15.5-25.6 4.4-5.9 4.1-6.4-2.8-4.4-3.4.9-6.9 2-7.7 2.3-1.5.6-7.1 9.3-19.3 29.4-3.3 5.4-9.4 15.4-13.8 22.4C4.6 65.2 1 71.3 1 71.7c0 .4 1.3 1.5 2.8 2.4 2.5 1.4 3.1 1.4 6.6 0C13.6 72.7 15 71 19.6 63c2.9-5.2 7.3-12.7 9.7-16.6 5-7.9 5.1-8 19-9.1 9-.7 9.2-.4 4.5 7.1C40.2 64.7 40 65.1 40 69.2v4.1l3.8-.7c2-.3 4.2-.6 4.9-.6.6 0 2.8-3 4.9-6.8 4.3-7.8 26.5-43.3 33.6-53.9 2.6-4 4.8-7.6 4.8-8.1 0-.9-5.5-2.2-9.3-2.2C81.5 1 78 5.5 72 14.7zm33.4 3.3c-2.5 3.7-2.7 3.8-10.5 4.4-4.3.4-7.9 1.1-7.9 1.6s2.9 1 6.5 1.2l6.5.3-5.9 9.7c-3.2 5.3-8.1 14.1-10.7 19.6-4.6 9.3-5.2 10.1-8.8 11.2-6.4 1.9-6.4 0-.2-8.2 5.8-7.8 6.9-10.3 3.9-9.4-1 .3-3 .8-4.5 1.1-3.3.8-5.6 3.4-9.7 10.8-5.7 10.3-2.6 14.2 7.5 9.8 5.8-2.6 7-2.6 7.7-.1.6 2.4 5.1 2.7 10.2.6 3.8-1.6 13.4-8 18-12 4.1-3.5 5.5-3.3 5.5.8 0 2.6-.8 4.1-3.5 6.5-1.9 1.7-3.5 3.5-3.5 4.1 0 2.6 19.9-2.7 24.6-6.6 2.8-2.2 2.8-2.3.7-2.4-1.3 0-3.7.9-5.5 2-4.9 3-5.5 2.6-5.4-3.3 0-2.8-.3-5.9-.7-6.7-.4-1 .2-2.6 1.8-4.4 3.1-3.6 3.2-5.6.3-5.6-4.2.1-9.8 3.6-18.5 11.6-8.8 8-11.8 10.3-14 10.4-3.3.1-1.7-3 19.3-35.7 3.3-5.1 3.3-5.1 9.1-5.5 3.2-.2 11-.5 17.3-.7 8.3-.1 12.5-.7 15.2-1.9 2.1-.9 3.8-1.9 3.8-2.2 0-.6-32.4.7-36.2 1.4-3.1.6-3.6-.5-1.3-2.8 2.7-2.6 1.7-3.6-3.6-3.4-4.7.1-5.2.3-7.5 3.8z"/></svg>