<svg version="1" xmlns="http://www.w3.org/2000/svg" width="149.333" height="96" viewBox="0 0 112.000000 72.000000"><path d="M60.4 1.2c-6.6 3.2-4.3 13.8 3 13.8 5 0 7.6-2.4 7.6-7 0-3-.6-4.3-2.6-5.9-2.9-2.3-4.8-2.5-8-.9zM37.3 27c-2.4 2.6-4.3 5-4.3 5.3 0 .4 2.6.7 5.9.7 4.9 0 11.5 1.3 13 2.6.2.2-.4 1.2-1.3 2.3-1.7 1.8-1.8 1.8-4.1-.5-3.1-3.1-6.9-3.1-10 .1-4.7 4.6-1.7 12.5 4.9 12.5 2.8 0 4.5-1.4 10.4-8.9l3.3-4.1 3.1 1.7c1.6 1 4.8 3.9 7 6.5 4.7 5.7 8.4 6.3 12.3 2.3 4.5-4.4 2.2-10.9-4.2-12.1-2.6-.5-3.7-.1-5.8 2-3.1 3.1-3.3 3.1-6.9.2l-2.9-2.4 2.8-1.8c1.8-1.1 2.9-1.4 3.3-.7 1 1.6 12.1-.6 14.3-2.8 4.1-4.1 1.5-4.8-8.2-2.5-3.1.7-7.7 2.4-10.3 3.9-3.9 2.2-5.1 2.4-7.6 1.5-1.7-.5-3-1.4-3-1.9 0-.4-.8-.5-1.7-.2-1.6.6-1.6.5-.4-1 1.7-2.2.3-2.2-2.1 0-2 1.8-2.5.4-.6-1.5.6-.6.8-1.5.4-1.9-.4-.5-1.6.2-2.6 1.4-2.9 3.6-3.4 2.7-.6-1 1.5-1.9 2.6-3.7 2.6-4 0-1.9-3 0-6.7 4.3z"/></svg>