<svg version="1" xmlns="http://www.w3.org/2000/svg" width="173.333" height="88" viewBox="0 0 130.000000 66.000000"><path d="M1 33v32h128V1H1v32zm125 0v29H4V4h122v29z"/><path d="M24 33v14h2.5c2.2 0 2.4-.4 2.7-5.5.2-3 .7-5.5 1.2-5.6.6 0 1.7 2.4 2.6 5.3 1.2 4.1 2.1 5.4 3.8 5.6 2.6.4 2.6.4.7-6.2-1.4-4.7-1.4-5.6 0-8.2C41.3 25 37.5 19 29 19h-5v14zm18.6-7.3C46.9 46.6 47 47 49.4 47c2.1 0 2.5-.8 4.5-10.3C57.5 19.4 57.6 19 55.2 19c-2.3 0-2.5.5-4.3 11l-1.3 7.5-1.2-5.5c-.7-3-1.5-7.2-1.8-9.3-.6-3-1.1-3.7-3-3.7h-2.4l1.4 6.7zM60 33v14h6c5.3 0 6-.2 6-2 0-1.6-.7-2-3.5-2H65V19h-5v14zm12-13.3c0 .4 1.2 6.8 2.7 14C77.2 46 77.6 47 79.6 47c2.6 0 2.5.1 5.3-13.5 1.2-5.5 2.3-11 2.6-12.3.4-1.8.1-2.2-1.9-2.2s-2.5.6-3 3.7c-.4 2.1-1.2 6.3-1.8 9.3l-1.1 5.5-1.6-9c-1.5-8-1.9-9-3.9-9.3-1.2-.2-2.2 0-2.2.5zm18.7.5c-.2.7-.4 6.9-.3 13.8.1 12.1.2 12.5 2.4 12.8 2 .3 2.2 0 2.2-5.2 0-7.6 2.3-7.6 4.5-.1 1.3 4.8 1.9 5.5 4 5.5 1.4 0 2.5-.2 2.5-.3 0-.2-.9-3-2-6.2-1.8-5.2-1.8-6-.5-7.5 1.5-1.7 2-8.7.7-10.6-2.1-3.2-12.4-4.8-13.5-2.2z"/></svg>