<?xml version="1.0" standalone="no"?>
<!DOCTYPE svg PUBLIC "-//W3C//DTD SVG 20010904//EN"
 "http://www.w3.org/TR/2001/REC-SVG-20010904/DTD/svg10.dtd">
<svg version="1.0" xmlns="http://www.w3.org/2000/svg"
 width="130.000000pt" height="66.000000pt" viewBox="0 0 130.000000 66.000000"
 preserveAspectRatio="xMidYMid meet">
<metadata>
Created by potrace 1.14, written by Peter Selinger 2001-2017
</metadata>
<g transform="translate(0.000000,66.000000) scale(0.100000,-0.100000)"
fill="#000000" stroke="none">
<path d="M10 330 l0 -320 640 0 640 0 0 320 0 320 -640 0 -640 0 0 -320z
m1250 0 l0 -290 -610 0 -610 0 0 290 0 290 610 0 610 0 0 -290z"/>
<path d="M240 330 l0 -140 25 0 c22 0 24 4 27 55 2 30 7 55 12 56 6 0 17 -24
26 -53 12 -41 21 -54 38 -56 26 -4 26 -4 7 62 -14 47 -14 56 0 82 38 74 0 134
-85 134 l-50 0 0 -140z"/>
<path d="M426 403 c43 -209 44 -213 68 -213 21 0 25 8 45 103 36 173 37 177
13 177 -23 0 -25 -5 -43 -110 l-13 -75 -12 55 c-7 30 -15 72 -18 93 -6 30 -11
37 -30 37 l-24 0 14 -67z"/>
<path d="M600 330 l0 -140 60 0 c53 0 60 2 60 20 0 16 -7 20 -35 20 l-35 0 0
120 0 120 -25 0 -25 0 0 -140z"/>
<path d="M720 463 c0 -4 12 -68 27 -140 25 -123 29 -133 49 -133 26 0 25 -1
53 135 12 55 23 110 26 123 4 18 1 22 -19 22 -20 0 -25 -6 -30 -37 -4 -21 -12
-63 -18 -93 l-11 -55 -16 90 c-15 80 -19 90 -39 93 -12 2 -22 0 -22 -5z"/>
<path d="M907 458 c-2 -7 -4 -69 -3 -138 1 -121 2 -125 24 -128 20 -3 22 0 22
52 0 76 23 76 45 1 13 -48 19 -55 40 -55 14 0 25 2 25 3 0 2 -9 30 -20 62 -18
52 -18 60 -5 75 15 17 20 87 7 106 -21 32 -124 48 -135 22z"/>
</g>
</svg>
