<?xml version="1.0" standalone="no"?>
<!DOCTYPE svg PUBLIC "-//W3C//DTD SVG 20010904//EN"
 "http://www.w3.org/TR/2001/REC-SVG-20010904/DTD/svg10.dtd">
<svg version="1.0" xmlns="http://www.w3.org/2000/svg"
 width="116.000000pt" height="100.000000pt" viewBox="0 0 116.000000 100.000000"
 preserveAspectRatio="xMidYMid meet">
<metadata>
Created by potrace 1.14, written by Peter Selinger 2001-2017
</metadata>
<g transform="translate(0.000000,100.000000) scale(0.100000,-0.100000)"
fill="#000000" stroke="none">
<path d="M843 943 c-20 -3 -33 -10 -33 -18 0 -8 -19 -27 -42 -43 -42 -28 -44
-28 -98 -15 -96 23 -222 -3 -313 -66 -53 -36 -121 -125 -113 -146 7 -20 23
-19 30 3 8 23 73 98 79 92 3 -3 -2 -31 -10 -63 -15 -52 -19 -57 -45 -57 -17 0
-28 -5 -28 -14 0 -9 8 -12 26 -8 15 3 29 -1 34 -8 7 -11 12 -10 25 3 9 10 22
17 29 17 8 0 29 3 47 6 l34 7 -37 -40 c-45 -46 -46 -52 -13 -45 14 2 25 1 25
-2 0 -16 -70 -115 -92 -130 -33 -23 -34 -4 -3 50 26 43 26 46 9 65 -26 29 -59
24 -87 -13 -31 -41 -57 -93 -57 -111 0 -21 28 -29 51 -16 15 7 24 7 34 -1 11
-9 21 -9 43 2 24 12 30 12 41 1 7 -8 21 -11 32 -8 24 8 24 0 -2 -42 -41 -66
12 -91 56 -26 14 21 25 45 25 53 0 23 80 43 95 25 7 -10 22 -12 50 -9 36 5 44
12 77 64 33 53 78 94 78 71 0 -5 -11 -29 -25 -52 -14 -24 -25 -51 -25 -60 0
-23 25 -31 55 -17 18 8 28 8 39 -1 11 -9 20 -10 35 -1 15 8 27 8 41 0 29 -15
70 9 117 69 52 69 75 68 33 -1 -24 -40 -25 -64 -3 -72 17 -7 93 37 93 54 0 16
-10 12 -42 -15 -17 -14 -33 -24 -35 -21 -2 2 5 22 16 45 23 44 27 76 10 86 -5
4 -15 19 -20 33 -8 21 -12 23 -19 12 -5 -8 -7 -24 -4 -36 4 -16 -9 -37 -55
-85 -33 -34 -63 -60 -67 -56 -4 4 20 54 54 112 47 83 56 105 43 105 -10 0 -27
-17 -40 -40 -14 -26 -27 -37 -36 -33 -31 11 -65 -8 -90 -52 -27 -45 -83 -100
-93 -91 -3 3 9 33 27 66 18 33 30 64 27 69 -4 5 -26 9 -50 9 -42 0 -45 -2 -70
-48 -29 -53 -88 -110 -94 -91 -2 7 12 39 32 72 41 69 41 69 21 69 -8 0 -26
-20 -40 -45 -26 -44 -77 -95 -96 -95 -5 0 6 19 24 43 74 97 94 167 49 167 -24
0 -52 -31 -96 -107 -33 -57 -93 -120 -103 -109 -3 2 12 36 34 75 24 46 44 71
56 71 9 0 17 5 17 10 0 6 -5 10 -11 10 -7 0 -5 10 5 25 15 23 15 25 0 25 -22
0 -12 24 12 28 10 2 56 20 102 39 95 40 89 42 137 -49 14 -27 30 -48 35 -48
15 0 13 9 -26 79 l-36 65 24 18 c13 9 29 18 35 18 23 0 88 -67 118 -124 48
-89 77 -80 36 11 -24 53 -90 124 -147 160 -24 16 -44 31 -44 35 0 8 64 48 78
48 6 0 22 11 36 25 14 14 22 24 18 23 -4 0 -22 -3 -39 -5z m-354 -195 c12 -34
21 -65 21 -70 0 -8 -48 -22 -112 -34 -34 -6 -38 -4 -38 15 0 51 64 151 96 151
7 0 22 -28 33 -62z"/>
<path d="M136 614 c-9 -8 -16 -26 -16 -40 0 -15 -7 -27 -17 -30 -63 -20 -93
-56 -93 -112 0 -60 68 -98 133 -73 45 17 71 111 32 111 -8 0 -11 -8 -8 -19 12
-46 -47 -92 -90 -70 -29 16 -37 28 -37 61 0 43 39 81 86 82 21 1 38 4 37 6
-20 50 -15 74 15 78 22 3 26 -5 22 -42 -3 -26 24 -15 28 13 2 12 -2 29 -8 37
-16 19 -65 18 -84 -2z"/>
<path d="M182 298 c-79 -117 -126 -228 -105 -249 4 -4 9 8 10 26 2 52 107 245
133 245 4 0 19 -19 33 -43 35 -59 107 -124 175 -155 50 -24 70 -27 157 -27 87
0 107 3 157 27 71 33 151 106 189 173 16 28 29 54 29 59 0 14 -188 -1 -250
-19 -37 -12 -55 -14 -58 -6 -2 6 -11 11 -19 11 -10 0 -13 -6 -9 -16 4 -12 -5
-20 -37 -32 -23 -9 -80 -35 -125 -58 l-84 -43 -42 39 c-23 21 -53 62 -66 89
-13 28 -27 51 -31 51 -5 0 -30 -33 -57 -72z m632 5 c-18 -74 -69 -153 -100
-153 -9 0 -41 92 -48 137 -1 8 105 41 137 42 14 1 16 -4 11 -26z m-155 -85
c12 -34 21 -66 21 -70 0 -11 -63 -10 -93 1 -14 5 -42 25 -62 43 l-38 33 59 27
c85 39 89 38 113 -34z"/>
</g>
</svg>
