<?xml version="1.0" standalone="no"?>
<!DOCTYPE svg PUBLIC "-//W3C//DTD SVG 20010904//EN"
 "http://www.w3.org/TR/2001/REC-SVG-20010904/DTD/svg10.dtd">
<svg version="1.0" xmlns="http://www.w3.org/2000/svg"
 width="154.000000pt" height="76.000000pt" viewBox="0 0 154.000000 76.000000"
 preserveAspectRatio="xMidYMid meet">
<metadata>
Created by potrace 1.14, written by Peter Selinger 2001-2017
</metadata>
<g transform="translate(0.000000,76.000000) scale(0.100000,-0.100000)"
fill="#000000" stroke="none">
<path d="M720 613 c-49 -76 -95 -147 -104 -159 -11 -16 -33 -23 -98 -32 -99
-14 -148 -15 -148 -3 0 10 121 210 155 256 44 59 41 64 -28 44 -34 -9 -69 -20
-77 -23 -15 -6 -71 -93 -193 -294 -33 -54 -94 -154 -138 -224 -43 -70 -79
-131 -79 -135 0 -4 13 -15 28 -24 25 -14 31 -14 66 0 32 14 46 31 92 111 29
52 73 127 97 166 50 79 51 80 190 91 90 7 92 4 45 -71 -126 -203 -128 -207
-128 -248 l0 -41 38 7 c20 3 42 6 49 6 6 0 28 30 49 68 43 78 265 433 336 539
26 40 48 76 48 81 0 9 -55 22 -93 22 -12 0 -47 -45 -107 -137z"/>
<path d="M1054 580 c-25 -37 -27 -38 -105 -44 -43 -4 -79 -11 -79 -16 0 -5 29
-10 65 -12 l65 -3 -59 -97 c-32 -53 -81 -141 -107 -196 -46 -93 -52 -101 -88
-112 -64 -19 -64 0 -2 82 58 78 69 103 39 94 -10 -3 -30 -8 -45 -11 -33 -8
-56 -34 -97 -108 -57 -103 -26 -142 75 -98 58 26 70 26 77 1 6 -24 51 -27 102
-6 38 16 134 80 180 120 41 35 55 33 55 -8 0 -26 -8 -41 -35 -65 -19 -17 -35
-35 -35 -41 0 -26 199 27 246 66 28 22 28 23 7 24 -13 0 -37 -9 -55 -20 -49
-30 -55 -26 -54 33 0 28 -3 59 -7 67 -4 10 2 26 18 44 31 36 32 56 3 56 -42
-1 -98 -36 -185 -116 -88 -80 -118 -103 -140 -104 -33 -1 -17 30 193 357 33
51 33 51 91 55 32 2 110 5 173 7 83 1 125 7 152 19 21 9 38 19 38 22 0 6 -324
-7 -362 -14 -31 -6 -36 5 -13 28 27 26 17 36 -36 34 -47 -1 -52 -3 -75 -38z"/>
</g>
</svg>
