<?xml version="1.0" standalone="no"?>
<!DOCTYPE svg PUBLIC "-//W3C//DTD SVG 20010904//EN"
 "http://www.w3.org/TR/2001/REC-SVG-20010904/DTD/svg10.dtd">
<svg version="1.0" xmlns="http://www.w3.org/2000/svg"
 width="112.000000pt" height="72.000000pt" viewBox="0 0 112.000000 72.000000"
 preserveAspectRatio="xMidYMid meet">
<metadata>
Created by potrace 1.14, written by Peter Selinger 2001-2017
</metadata>
<g transform="translate(0.000000,72.000000) scale(0.100000,-0.100000)"
fill="#000000" stroke="none">
<path d="M604 708 c-66 -32 -43 -138 30 -138 50 0 76 24 76 70 0 30 -6 43 -26
59 -29 23 -48 25 -80 9z"/>
<path d="M373 450 c-24 -26 -43 -50 -43 -53 0 -4 26 -7 59 -7 49 0 115 -13
130 -26 2 -2 -4 -12 -13 -23 -17 -18 -18 -18 -41 5 -31 31 -69 31 -100 -1 -47
-46 -17 -125 49 -125 28 0 45 14 104 89 l33 41 31 -17 c16 -10 48 -39 70 -65
47 -57 84 -63 123 -23 45 44 22 109 -42 121 -26 5 -37 1 -58 -20 -31 -31 -33
-31 -69 -2 l-29 24 28 18 c18 11 29 14 33 7 10 -16 121 6 143 28 41 41 15 48
-82 25 -31 -7 -77 -24 -103 -39 -39 -22 -51 -24 -76 -15 -17 5 -30 14 -30 19
0 4 -8 5 -17 2 -16 -6 -16 -5 -4 10 17 22 3 22 -21 0 -20 -18 -25 -4 -6 15 6
6 8 15 4 19 -4 5 -16 -2 -26 -14 -29 -36 -34 -27 -6 10 15 19 26 37 26 40 0
19 -30 0 -67 -43z"/>
</g>
</svg>
